<?xml version="1.0" standalone="no"?>
<!DOCTYPE svg PUBLIC "-//W3C//DTD SVG 20010904//EN"
 "http://www.w3.org/TR/2001/REC-SVG-20010904/DTD/svg10.dtd">
<svg version="1.0" xmlns="http://www.w3.org/2000/svg"
 width="860.000000pt" height="645.000000pt" viewBox="0 0 860.000000 645.000000"
 preserveAspectRatio="xMidYMid meet">

<g transform="translate(0.000000,645.000000) scale(0.100000,-0.100000)"
fill="#000000" stroke="none">
<path d="M4635 5397 c0 -107 -3 -129 -24 -177 -62 -140 -160 -243 -421 -443
-124 -95 -237 -213 -272 -284 -28 -56 -30 -70 -26 -130 7 -101 62 -200 188
-338 71 -79 199 -199 205 -193 3 2 -26 50 -64 106 -150 220 -177 283 -169 390
8 102 44 168 152 277 50 50 133 126 184 169 145 122 269 292 303 418 13 51 13
166 -1 216 -5 20 -20 54 -32 74 l-23 37 0 -122z"/>
<path d="M4864 4835 c-255 -93 -447 -229 -513 -360 -33 -66 -45 -148 -30 -209
16 -69 40 -116 110 -213 32 -44 63 -93 69 -108 24 -64 4 -162 -43 -214 l-22
-24 22 12 c52 27 140 112 173 166 60 100 46 181 -51 310 -53 70 -89 152 -89
203 0 112 111 232 365 392 149 95 150 97 9 45z"/>
<path d="M5127 3806 c-27 -7 -54 -19 -60 -25 -9 -10 -5 -11 18 -4 147 40 282
-71 260 -214 -14 -94 -123 -212 -285 -308 -41 -25 -72 -45 -68 -45 26 0 158
50 228 86 159 82 250 189 250 296 0 55 -20 111 -53 146 -60 65 -193 96 -290
68z"/>
<path d="M3800 3780 c-82 -11 -174 -37 -275 -76 -108 -42 -144 -68 -129 -92
42 -66 308 -98 744 -88 378 8 630 43 744 105 33 17 61 33 63 35 2 2 -34 -3
-80 -10 -281 -45 -627 -68 -920 -62 -182 4 -232 9 -277 24 -42 15 -55 24 -55
39 0 26 97 75 215 109 85 25 75 30 -30 16z"/>
<path d="M3717 3388 c-94 -51 -99 -88 -19 -130 106 -57 304 -84 562 -75 210 8
421 38 548 78 l33 11 -57 36 -57 35 -146 -23 c-179 -28 -427 -36 -614 -21
-179 14 -230 40 -192 97 20 31 12 30 -58 -8z"/>
<path d="M3800 3048 c-82 -42 -81 -90 3 -138 86 -49 207 -73 397 -77 216 -6
398 22 565 87 l30 12 -80 40 -80 41 -110 -18 c-201 -32 -507 -29 -627 7 -36
11 -56 37 -43 58 10 16 -7 12 -55 -12z"/>
<path d="M3460 2843 c-47 -8 -185 -56 -230 -81 -155 -85 -124 -142 93 -177
596 -95 1295 -82 1732 32 210 55 316 128 263 181 -18 18 -27 14 -21 -8 22 -85
-250 -148 -782 -181 -322 -20 -809 -1 -1010 40 -78 16 -158 46 -169 64 -23 36
63 84 208 117 l81 18 -70 0 c-38 0 -81 -3 -95 -5z"/>
<path d="M5449 2634 c-23 -29 -154 -83 -272 -114 -136 -36 -301 -64 -507 -86
-265 -29 -772 -23 -1035 12 -66 9 -19 -12 65 -29 165 -34 284 -42 635 -42 277
0 380 4 495 18 354 45 553 112 617 208 26 40 28 64 2 33z"/>
<path d="M3218 1663 l-3 -498 -28 -50 c-15 -27 -48 -65 -72 -84 -49 -36 -49
-45 -2 -90 l26 -23 48 23 c61 30 129 97 156 157 22 46 22 58 25 555 l3 507
-75 0 -75 0 -3 -497z"/>
<path d="M3680 1900 c-25 -6 -69 -17 -98 -27 l-54 -16 7 -36 c4 -20 10 -39 13
-43 4 -4 30 -1 57 7 85 26 178 30 230 11 56 -22 75 -55 75 -129 l0 -54 -87 -7
c-143 -11 -223 -38 -275 -93 -84 -88 -75 -256 16 -313 85 -52 218 -44 309 17
53 36 67 33 67 -14 0 -21 5 -23 55 -23 30 0 55 3 55 8 0 4 1 133 2 287 1 199
-2 289 -11 310 -17 41 -59 84 -101 102 -42 18 -197 26 -260 13z m230 -469 c0
-90 0 -90 -32 -114 -75 -55 -160 -63 -210 -18 -30 27 -33 35 -33 85 0 47 4 60
27 82 32 32 102 52 186 53 l62 1 0 -89z"/>
<path d="M5040 1900 c-63 -14 -150 -42 -150 -49 0 -3 5 -23 11 -44 8 -30 14
-37 27 -32 35 13 155 35 192 35 52 0 115 -26 134 -55 10 -15 16 -47 16 -83 l0
-59 -87 -7 c-211 -16 -318 -86 -331 -216 -13 -138 64 -222 203 -223 73 -1 130
15 180 48 50 35 58 35 65 0 5 -29 7 -30 63 -33 l58 -3 -3 288 c-3 287 -3 289
-28 338 -37 72 -93 98 -214 102 -50 1 -111 -2 -136 -7z m230 -468 c0 -101 -4
-107 -84 -143 -64 -28 -127 -22 -164 15 -21 21 -26 35 -26 80 -1 47 3 60 26
82 32 32 102 52 186 53 l62 1 0 -88z"/>
<path d="M4153 1888 c6 -16 196 -631 209 -675 l9 -33 93 0 93 0 33 78 c77 183
131 356 170 545 21 102 23 99 -70 95 l-64 -3 -17 -100 c-30 -174 -113 -470
-130 -459 -4 2 -12 26 -18 52 -10 48 -64 228 -122 410 l-33 102 -79 0 c-59 0
-78 -3 -74 -12z"/>
</g>
</svg>
