<?xml version="1.0" standalone="no"?>
<!DOCTYPE svg PUBLIC "-//W3C//DTD SVG 20010904//EN"
 "http://www.w3.org/TR/2001/REC-SVG-20010904/DTD/svg10.dtd">
<svg version="1.0" xmlns="http://www.w3.org/2000/svg"
 width="860.000000pt" height="860.000000pt" viewBox="0 0 860.000000 860.000000"
 preserveAspectRatio="xMidYMid meet">

<g transform="translate(0.000000,860.000000) scale(0.100000,-0.100000)"
fill="#000000" stroke="none">
<path d="M6033 8498 c-43 -14 -66 -34 -561 -485 -555 -507 -846 -772 -1197
-1092 -154 -141 -352 -321 -440 -402 -88 -80 -219 -199 -291 -265 -72 -65
-329 -300 -572 -521 -243 -222 -445 -403 -450 -403 -4 0 -109 77 -233 170
-123 94 -354 269 -514 389 -159 121 -322 244 -361 274 -38 30 -137 104 -220
166 -82 61 -160 121 -174 131 -30 24 -140 60 -184 60 -47 0 -145 -28 -185 -53
-20 -12 -90 -71 -156 -131 -66 -60 -163 -148 -215 -195 -151 -135 -214 -203
-238 -253 -60 -123 -42 -275 44 -378 25 -29 545 -509 829 -763 66 -60 143
-130 170 -156 28 -27 109 -101 180 -166 72 -65 131 -120 132 -124 1 -3 -292
-274 -652 -601 -359 -327 -667 -615 -684 -640 -17 -25 -38 -76 -47 -113 -22
-88 -8 -180 39 -258 46 -76 539 -527 622 -569 126 -63 264 -46 387 48 35 27
297 226 583 442 286 217 597 452 690 523 94 71 176 131 182 134 7 3 111 -84
230 -193 496 -453 1385 -1264 1478 -1349 55 -51 233 -213 395 -361 163 -148
444 -404 625 -570 182 -166 420 -383 530 -484 110 -100 216 -189 235 -199 19
-9 37 -18 40 -21 12 -12 110 -10 162 4 94 24 162 78 206 161 l27 50 3 1020 2
1020 -167 126 c-93 70 -304 230 -469 355 -452 343 -1078 818 -1259 955 -430
327 -491 372 -502 372 -7 0 -11 4 -10 7 1 4 -34 35 -78 69 -44 34 -80 66 -80
71 0 9 224 180 1285 985 217 165 474 359 570 432 96 73 295 224 443 336 l267
202 -2 1015 -3 1015 -24 45 c-32 62 -86 117 -146 148 -39 20 -67 26 -130 28
-44 2 -94 -2 -112 -8z"/>
</g>
</svg>
